<svg xmlns="http://www.w3.org/2000/svg" width="375" height="47" fill="none"><g clip-path="url(#a)"><path fill="#fff" d="M39.879 19.723c-2.598 0-4.45 1.777-4.45 4.209v.016c0 2.275 1.61 3.951 3.91 3.951 1.644 0 2.69-.838 3.13-1.784h.166c0 .091-.009.182-.009.274-.091 2.29-.896 4.15-2.797 4.15-1.054 0-1.793-.548-2.109-1.386l-.024-.083h-2.109l.017.091c.382 1.835 2.025 3.138 4.225 3.138 3.013 0 4.83-2.39 4.83-6.425v-.017c0-4.316-2.224-6.134-4.78-6.134Zm-.009 6.533c-1.361 0-2.349-.996-2.349-2.383v-.016a2.367 2.367 0 0 1 2.374-2.39c1.328 0 2.366 1.07 2.366 2.44v.016c0 1.353-1.038 2.333-2.39 2.333Zm8.15-2.017a1.29 1.29 0 0 0 1.32-1.312c0-.738-.556-1.311-1.32-1.311a1.29 1.29 0 0 0-1.32 1.311c0 .73.565 1.312 1.32 1.312Zm0 6.159c.764 0 1.32-.573 1.32-1.312 0-.738-.556-1.311-1.32-1.311a1.29 1.29 0 0 0-1.32 1.311 1.29 1.29 0 0 0 1.32 1.312ZM57.191 32h2.05v-2.3h1.611v-1.767h-1.61v-7.911h-3.03a159.518 159.518 0 0 0-4.88 7.927v1.752h5.86V32Zm-3.868-4.018v-.124a124.04 124.04 0 0 1 3.777-6.126h.125v6.25h-3.902ZM65.408 32h2.142V20.022h-2.134l-3.13 2.2v2.017l2.98-2.109h.142V32Z"/><path stroke="#fff" stroke-width="1.055" d="M324.528 23A3.472 3.472 0 0 1 328 19.527h17A3.472 3.472 0 0 1 348.472 23v5A3.472 3.472 0 0 1 345 31.473h-17A3.472 3.472 0 0 1 324.528 28v-5Z" opacity=".35"/><path fill="#fff" d="M350 24v4.22a2.29 2.29 0 0 0 0-4.22Z" opacity=".4"/><path fill="#fff" d="M326 23a2 2 0 0 1 2-2h17a2 2 0 0 1 2 2v5a2 2 0 0 1-2 2h-17a2 2 0 0 1-2-2v-5Z"/><path fill="#fff" fill-rule="evenodd" d="M308.5 22.587c2.467 0 4.839.968 6.627 2.703.134.134.35.132.482-.004l1.287-1.326a.368.368 0 0 0-.003-.518 11.953 11.953 0 0 0-16.786 0 .37.37 0 0 0-.003.518l1.287 1.326a.337.337 0 0 0 .482.004 9.516 9.516 0 0 1 6.627-2.703Zm.036 4.002c1.355 0 2.662.515 3.667 1.443a.34.34 0 0 0 .482-.006l1.285-1.326a.37.37 0 0 0-.005-.522 7.852 7.852 0 0 0-10.856 0 .37.37 0 0 0-.004.522l1.285 1.326a.34.34 0 0 0 .482.006 5.4 5.4 0 0 1 3.664-1.443Zm2.614 2.588a.36.36 0 0 1-.105.262l-2.223 2.29a.345.345 0 0 1-.494 0l-2.223-2.29a.36.36 0 0 1 .01-.52 3.75 3.75 0 0 1 4.92 0 .362.362 0 0 1 .115.258Z" clip-rule="evenodd"/><path fill="#fff" d="M284 23a1 1 0 0 1 1-1h1a1 1 0 0 1 1 1v8a1 1 0 0 1-1 1h-1a1 1 0 0 1-1-1v-8ZM289 21a1 1 0 0 1 1-1h1a1 1 0 0 1 1 1v10a1 1 0 0 1-1 1h-1a1 1 0 0 1-1-1V21ZM279 26.5a1 1 0 0 1 1-1h1a1 1 0 0 1 1 1V31a1 1 0 0 1-1 1h-1a1 1 0 0 1-1-1v-4.5ZM274 29a1 1 0 0 1 1-1h1a1 1 0 0 1 1 1v2a1 1 0 0 1-1 1h-1a1 1 0 0 1-1-1v-2Z"/></g><defs><clipPath id="a"><path fill="#fff" d="M0 0h375v47H0z"/></clipPath></defs></svg>